<svg xmlns="http://www.w3.org/2000/svg" width="26.997" height="18.496" viewBox="0 0 26.997 18.496">
  <g id="mensagem" transform="translate(0 -80.609)">
    <g id="Grupo_1" data-name="Grupo 1" transform="translate(0 80.609)">
      <path id="Caminho_1" data-name="Caminho 1" d="M24.625,80.609H2.373A2.376,2.376,0,0,0,0,82.982V96.733a2.376,2.376,0,0,0,2.373,2.373H24.625A2.376,2.376,0,0,0,27,96.733V82.982A2.376,2.376,0,0,0,24.625,80.609Zm-.31,1.582L24,82.455,14.44,90.414a1.471,1.471,0,0,1-1.883,0L3,82.455l-.317-.264ZM1.582,83.333,9.37,89.818,1.582,95ZM24.625,97.524H2.373A.792.792,0,0,1,1.6,96.89l9.04-6.016.907.755a3.053,3.053,0,0,0,3.907,0l.907-.755L25.4,96.89A.792.792,0,0,1,24.625,97.524ZM25.415,95l-7.788-5.183,7.788-6.485Z" transform="translate(0 -80.609)" fill="#dbdad8"/>
    </g>
  </g>
</svg>
